<svg width="171" height="49" viewBox="0 0 171 49" fill="none" xmlns="http://www.w3.org/2000/svg">
<g clip-path="url(#clip0_299_4446)">
<g clip-path="url(#clip1_299_4446)">
<path d="M27.4328 3.89404C34.6612 3.89404 41.64 8.04955 45.1041 14.3906C46.7098 17.3307 47.5493 20.6612 47.5493 24.0106C47.5493 26.3622 47.1459 28.6188 46.4043 30.7158C45.5213 33.2141 44.1586 35.4866 42.4266 37.4211C41.9288 37.9776 41.3999 38.5066 40.8433 39.0044C38.9082 40.7356 36.6363 42.099 34.1381 42.9821C32.0411 43.7237 29.7837 44.1271 27.4328 44.1271H14.0223C13.9838 44.1271 13.9461 44.1271 13.9076 44.1256C13.8728 44.1256 13.8387 44.1242 13.8039 44.1235C13.7088 44.1206 13.6138 44.1155 13.5194 44.1082C13.4948 44.106 13.4694 44.1046 13.4447 44.1024C13.3823 44.0973 13.3206 44.0908 13.2589 44.0843C13.2437 44.0821 13.2285 44.0806 13.2132 44.0785C13.182 44.0748 13.1515 44.0712 13.1218 44.0669C13.087 44.0618 13.0521 44.0574 13.0173 44.0516C12.9919 44.0473 12.9658 44.0436 12.9404 44.0393C12.9208 44.0364 12.9012 44.0328 12.8816 44.0299C12.8287 44.0211 12.7764 44.011 12.7234 44.0008C12.677 43.9921 12.6313 43.9827 12.5863 43.9725C12.5479 43.9638 12.5087 43.9551 12.4702 43.9464C12.4608 43.9442 12.4513 43.9421 12.4412 43.9392C12.3534 43.9181 12.267 43.8949 12.1807 43.8709C12.0914 43.8456 12.0037 43.8187 11.9159 43.7897C11.8788 43.7781 11.8418 43.765 11.8056 43.7519C11.7947 43.7483 11.7831 43.7447 11.7722 43.7403C11.7388 43.7287 11.7054 43.7164 11.6713 43.7033C11.6227 43.6852 11.5748 43.6671 11.5277 43.6482C11.4892 43.633 11.4507 43.617 11.4123 43.601C11.3796 43.588 11.3477 43.5735 11.3158 43.5589C11.2904 43.5481 11.265 43.5364 11.2396 43.5248C11.1772 43.4965 11.1148 43.4668 11.0531 43.4363C11.0502 43.4349 11.0473 43.4334 11.0444 43.432C11.0212 43.4204 10.9972 43.4087 10.974 43.3964C10.9479 43.3833 10.9211 43.3696 10.8949 43.3558C10.8616 43.3384 10.8282 43.3202 10.7948 43.3021C10.7904 43.2999 10.7868 43.2977 10.7825 43.2956C10.7447 43.2745 10.7063 43.2527 10.6685 43.231C10.0772 42.8892 9.54387 42.4597 9.08384 41.9604C7.98601 40.7668 7.31555 39.1727 7.31555 37.4225H27.4321C29.8744 37.4225 32.1652 36.7695 34.1373 35.6281C36.1734 34.4505 37.8705 32.7526 39.0482 30.7166C40.1896 28.7444 40.8426 26.4537 40.8426 24.0113C40.8426 21.5689 40.1896 19.2782 39.0482 17.306C39.0402 17.2915 39.0315 17.2777 39.0235 17.2639C37.8807 15.3034 36.2539 13.6599 34.3086 12.4953C34.2513 12.4612 34.1947 12.4278 34.1373 12.3944C32.1652 11.2531 29.8744 10.6 27.4321 10.6M26.6317 16.4607C26.303 16.4607 26.1383 16.8583 26.3705 17.0912L27.1063 17.827L28.0416 18.7623L27.4974 19.3065L27.4321 19.3718L22.7933 24.0106L22.7534 24.0505L22.6402 23.9707C22.4385 23.8342 22.1802 23.7588 21.9502 23.6688C21.8791 23.6405 21.8065 23.6151 21.7332 23.5926C21.6723 23.573 21.6106 23.5556 21.5475 23.5404C21.4539 23.5164 21.3581 23.4968 21.2616 23.4816C21.1651 23.4656 21.0664 23.4548 20.967 23.4475C20.8879 23.4417 20.8074 23.4388 20.7261 23.4388C20.7021 23.4388 20.6782 23.4388 20.6542 23.4402C20.6455 23.4402 20.6368 23.4402 20.6281 23.441C19.9707 23.4591 19.3612 23.6674 18.8526 24.0113C18.7278 24.0955 18.6102 24.1912 18.5036 24.2986L16.4937 26.3085L16.4378 26.3651L16.0133 26.7896C17.9492 28.7262 19.7494 30.7173 22.7186 30.7173C23.8404 30.7173 24.8983 30.4416 25.8278 29.9547C26.4199 29.6441 27.0257 29.2566 27.4974 28.7908L32.2762 24.0127L32.7826 23.5063L34.5364 25.26C34.7497 25.4734 35.114 25.3224 35.114 25.0206V16.4629H26.631L26.6317 16.4607Z" fill="url(#paint0_linear_299_4446)"/>
<path d="M27.4328 44.1272C34.6612 44.1272 41.64 39.9717 45.1041 33.6307C46.7098 30.6905 47.5493 27.36 47.5493 24.0107C47.5493 21.659 47.1459 19.4024 46.4043 17.3054C45.5213 14.8072 44.1586 12.5346 42.4266 10.6001C41.9288 10.0436 41.3999 9.51465 40.8433 9.01689C38.9082 7.28561 36.6363 5.92221 34.1381 5.03915C32.0411 4.29759 29.7837 3.89416 27.4328 3.89416H14.0223C13.9838 3.89416 13.9461 3.89415 13.9076 3.8956C13.8728 3.8956 13.8387 3.89706 13.8039 3.89779C13.7088 3.90068 13.6138 3.90577 13.5194 3.91302C13.4948 3.9152 13.4694 3.91665 13.4447 3.91882C13.3823 3.9239 13.3206 3.93044 13.2589 3.93697C13.2437 3.93914 13.2285 3.94059 13.2132 3.94277C13.182 3.9464 13.1515 3.95003 13.1218 3.95438C13.087 3.95946 13.0521 3.96381 13.0173 3.96962C12.9919 3.97397 12.9658 3.9776 12.9404 3.98195C12.9208 3.98486 12.9012 3.98848 12.8816 3.99139C12.8287 4.0001 12.7764 4.01025 12.7234 4.02041C12.677 4.02912 12.6313 4.03855 12.5863 4.04871C12.5479 4.05742 12.5087 4.06612 12.4702 4.07483C12.4608 4.07701 12.4513 4.07918 12.4412 4.08208C12.3534 4.10313 12.267 4.12635 12.1807 4.1503C12.0914 4.17569 12.0036 4.20253 11.9159 4.23156C11.8788 4.24317 11.8418 4.25623 11.8056 4.26929C11.7947 4.27292 11.7831 4.27655 11.7722 4.2809C11.7388 4.29251 11.7054 4.30485 11.6713 4.31791C11.6227 4.33605 11.5748 4.35419 11.5277 4.37305C11.4892 4.38829 11.4507 4.40425 11.4123 4.42022C11.3796 4.43328 11.3477 4.44779 11.3158 4.4623C11.2904 4.47319 11.265 4.48479 11.2396 4.4964C11.1772 4.5247 11.1148 4.55445 11.0531 4.58493C11.0502 4.58638 11.0473 4.58783 11.0444 4.58928C11.0212 4.60089 10.9972 4.6125 10.974 4.62484C10.9479 4.6379 10.9211 4.65168 10.8949 4.66547C10.8616 4.68288 10.8282 4.70103 10.7948 4.71917C10.7904 4.72134 10.7868 4.72352 10.7825 4.72569C10.7447 4.74673 10.7063 4.7685 10.6685 4.79027C10.0772 5.13203 9.54387 5.56158 9.08384 6.06079C7.98601 7.25441 7.31555 8.84855 7.31555 10.5987H27.4321C29.8744 10.5987 32.1652 11.2517 34.1373 12.3931C36.1734 13.5707 37.8705 15.2687 39.0482 17.3047C40.1896 19.2769 40.8426 21.5676 40.8426 24.01C40.8426 26.4523 40.1896 28.743 39.0482 30.7152C39.0402 30.7297 39.0315 30.7435 39.0235 30.7573C37.8807 32.7179 36.2539 34.3614 34.3086 35.5259C34.2513 35.56 34.1947 35.5934 34.1373 35.6268C32.1652 36.7682 29.8744 37.4212 27.4321 37.4212" fill="url(#paint1_linear_299_4446)"/>
<path d="M22.7546 24.0505C22.7176 24.0229 22.6798 23.9968 22.6414 23.9707C22.4397 23.8342 22.1813 23.7588 21.9513 23.6688C21.8802 23.6405 21.8077 23.6151 21.7344 23.5926C21.6734 23.573 21.6118 23.5556 21.5486 23.5404C21.455 23.5164 21.3592 23.4968 21.2627 23.4816C21.1662 23.4656 21.0676 23.4548 20.9681 23.4475C20.8891 23.4417 20.8085 23.4388 20.7272 23.4388C20.7033 23.4388 20.6794 23.4388 20.6554 23.4402C20.6467 23.4402 20.638 23.4402 20.6293 23.441C19.9719 23.4591 19.3624 23.6674 18.8537 24.0113C18.7289 24.0955 18.6114 24.1912 18.5047 24.2986C18.5047 24.2986 17.0746 25.7223 16.4948 26.3085L16.439 26.3651L16.0145 26.7896L14.022 28.7821L8.70188 34.1022C7.82681 34.9773 7.32107 36.1607 7.31671 37.3979V37.4225C7.31671 39.1727 7.98717 40.7661 9.085 41.9604C9.31139 42.2071 9.55591 42.4364 9.81641 42.6469C10.0762 42.8566 10.3519 43.0467 10.6407 43.215C10.9295 43.3841 11.2313 43.5306 11.5426 43.6547C11.9047 43.7984 12.2805 43.9116 12.6622 43.9907C12.8871 44.0371 13.1143 44.0719 13.3428 44.0952C13.3769 44.0988 13.4118 44.1017 13.4459 44.1046C13.4705 44.1068 13.4959 44.1089 13.5206 44.1104C13.6149 44.1177 13.71 44.1227 13.805 44.1256C13.8399 44.1271 13.874 44.1278 13.9088 44.1278C13.9465 44.1285 13.985 44.1293 14.0234 44.1293H7.31817C5.45845 44.1293 3.77579 43.3725 2.56041 42.1491C2.55968 42.1484 2.55896 42.1476 2.55823 42.1462C1.93785 41.4627 1.42702 40.6783 1.05334 39.8199C0.602016 38.7823 0.351685 37.6366 0.351685 36.4328C0.351685 35.0034 0.704326 33.6567 1.32762 32.4747C1.32762 32.474 1.32834 32.4725 1.32907 32.4718C1.50466 32.138 1.70203 31.818 1.91971 31.5118C2.12868 31.2296 2.35434 30.964 2.60395 30.7173C2.60395 30.7173 2.93337 30.3879 3.46451 29.8567C5.65582 27.6654 11.2734 22.0478 11.2734 22.0478L11.3017 22.0195L11.3307 21.9912C12.0788 21.2605 12.9982 20.7033 14.0227 20.3847C14.6518 20.1888 15.3215 20.0836 16.0152 20.0836C16.423 20.0836 16.8228 20.1199 17.2103 20.1896C18.5693 20.4341 19.7861 21.0878 20.7287 22.0195L20.757 22.0478L22.7553 24.0519L22.7546 24.0505ZM7.31164 3.89404C3.73225 3.89404 0.808087 6.69849 0.616528 10.23V17.3053H7.32179V10.9694C7.31526 10.8475 7.31164 10.7241 7.31164 10.6C7.31164 8.11776 8.66053 5.95112 10.6646 4.79161C11.6507 4.22129 12.7957 3.89477 14.0176 3.89477H7.31236L7.31164 3.89404Z" fill="#DB154C"/>
</g>
<path d="M73.732 9.86775C73.732 15.0829 70.2472 17.5375 66.2823 17.5375H55.1517V2.198H66.2823C70.2492 2.198 73.732 4.65256 73.732 9.86775ZM69.7871 9.86775C69.7871 6.1429 67.7706 5.50676 64.7919 5.50676H59.0946V14.2268H64.7919C67.7726 14.2268 69.7871 13.5906 69.7871 9.86575V9.86775Z" fill="white"/>
<path d="M79.0114 0.00732422V3.27207H75.2645V0.00732422H79.0114ZM79.0114 4.63038V17.5353H75.2645V4.63038H79.0114Z" fill="white"/>
<path d="M98.3158 4.63021V15.4767C98.3158 20.7359 94.789 23.0144 89.9019 23.0144C86.155 23.0144 83.0663 22.3143 81.816 21.9842V18.9595C83.3284 19.2436 86.221 19.8797 89.0677 19.8797C92.9466 19.8797 94.3929 18.3894 94.5449 15.0806C93.2306 16.5269 91.0601 17.3811 88.0154 17.3811C83.5884 17.3811 80.4337 15.4527 80.4337 10.8956C80.4337 6.3386 83.5884 4.41016 88.0154 4.41016C91.0822 4.41016 93.2527 5.26435 94.5449 6.71068V4.62821H98.3138L98.3158 4.63021ZM94.5469 10.8976C94.5469 8.5311 92.9046 7.54487 89.3758 7.54487C85.847 7.54487 84.1826 8.5311 84.1826 10.8976C84.1826 13.2642 85.847 14.2504 89.3758 14.2504C92.9046 14.2504 94.5469 13.2642 94.5469 10.8976Z" fill="white"/>
<path d="M103.815 0.00732422V3.27207H100.068V0.00732422H103.815ZM103.815 4.63038V17.5353H100.068V4.63038H103.815Z" fill="white"/>
<path d="M112.273 7.76288V11.4877C112.273 13.9863 112.755 14.6204 115.034 14.6204C116.216 14.6204 116.874 14.6204 118.386 14.4004V17.4251C117.138 17.6451 115.714 17.7532 113.981 17.7532C110.651 17.7532 108.504 16.5049 108.504 13.6562V7.76288H105.107V4.63016H108.504V1.95755L112.273 0.883301V4.63016H118.386V7.76288H112.273Z" fill="white"/>
<path d="M137.074 11.0277V17.5352H133.306V15.9348C131.027 17.0531 128.506 17.7532 125.462 17.7532C121.847 17.7532 119.59 16.5909 119.59 13.6783C119.59 10.3255 123.271 9.27327 127.368 9.27327C129.581 9.27327 131.619 9.62335 133.306 10.1935C133.306 7.73892 130.151 7.54287 128.398 7.54287C126.646 7.54287 124.652 7.69691 122.001 8.48509L120.665 5.74646C123.293 4.89227 125.88 4.41016 128.575 4.41016C133.964 4.41016 137.032 6.14055 137.076 11.0277H137.074ZM133.308 12.518C131.993 12.1019 130.219 11.7298 127.83 11.7298C125.026 11.7298 123.339 12.2119 123.339 13.5262C123.339 14.8405 124.588 14.9946 126.538 14.9946C128.488 14.9946 131.381 14.3584 133.308 13.5262V12.518Z" fill="white"/>
<path d="M142.574 0.00732422V17.5353H138.827V0.00732422H142.574Z" fill="white"/>
<path d="M73.7761 30.5085H66.3264V42.5372H62.3815V30.5085H54.9318V27.1997H73.7761V30.5085Z" fill="white"/>
<path d="M88.4117 29.852V32.9847C87.1855 32.6786 86.1992 32.5466 85.103 32.5466C83.0005 32.5466 80.59 33.0287 78.3114 34.8031V42.5369H74.5646V29.6319H78.3114V31.8224C80.2399 30.092 82.5184 29.4119 84.9289 29.4119C86.4633 29.4119 87.5355 29.6319 88.4137 29.85L88.4117 29.852Z" fill="white"/>
<path d="M106.093 36.0294V42.5369H102.325V40.9365C100.046 42.0548 97.5255 42.7549 94.4808 42.7549C90.866 42.7549 88.6095 41.5927 88.6095 38.68C88.6095 35.3272 92.2903 34.275 96.3873 34.275C98.5998 34.275 100.638 34.6251 102.325 35.1952C102.325 32.7406 99.1699 32.5446 97.4175 32.5446C95.6651 32.5446 93.6707 32.6986 91.02 33.4868L89.6837 30.7482C92.3123 29.894 94.8989 29.4119 97.5936 29.4119C102.983 29.4119 106.051 31.1423 106.096 36.0294H106.093ZM102.325 37.5197C101.01 37.1036 99.2359 36.7315 96.8474 36.7315C94.0427 36.7315 92.3564 37.2137 92.3564 38.528C92.3564 39.8423 93.6046 39.9963 95.5551 39.9963C97.5055 39.9963 100.398 39.3601 102.325 38.528V37.5197Z" fill="white"/>
<path d="M125.288 25.0086V42.5367H121.541V40.5202C120.139 41.9885 117.882 42.7547 115.099 42.7547C110.958 42.7547 107.41 41.0243 107.41 36.0932C107.41 31.162 110.958 29.4096 115.099 29.4096C117.882 29.4096 120.139 30.1758 121.541 31.6442V25.0046H125.288V25.0086ZM121.541 36.0952C121.541 33.5326 119.7 32.5464 116.348 32.5464C112.995 32.5464 111.177 33.5326 111.177 36.0952C111.177 38.6578 112.995 39.622 116.348 39.622C119.7 39.622 121.541 38.6358 121.541 36.0952Z" fill="white"/>
<path d="M130.787 25.0093V28.274H127.041V25.0093H130.787ZM130.787 29.6323V42.5373H127.041V29.6323H130.787Z" fill="white"/>
<path d="M150.638 35.3952L150.594 42.5389H146.825V36.8196C146.825 34.0809 145.905 32.6566 142.816 32.6566C140.295 32.6566 137.579 33.9489 136.418 35.3072V42.5369H132.672V29.6319H136.418V31.8884C138.259 30.4421 140.802 29.4119 143.934 29.4119C147.375 29.4119 150.596 30.6381 150.64 35.3932L150.638 35.3952Z" fill="white"/>
<path d="M169.92 29.6319V40.4784C169.92 45.7376 166.393 48.0161 161.506 48.0161C157.759 48.0161 154.67 47.316 153.42 46.9859V43.9612C154.933 44.2453 157.825 44.8814 160.672 44.8814C164.551 44.8814 165.997 43.3911 166.149 40.0823C164.835 41.5286 162.664 42.3828 159.62 42.3828C155.193 42.3828 152.038 40.4544 152.038 35.8974C152.038 31.3403 155.193 29.4119 159.62 29.4119C162.686 29.4119 164.857 30.2661 166.149 31.7124V29.6299H169.918L169.92 29.6319ZM166.151 35.8993C166.151 33.5328 164.509 32.5466 160.98 32.5466C157.451 32.5466 155.787 33.5328 155.787 35.8993C155.787 38.2659 157.451 39.2521 160.98 39.2521C164.509 39.2521 166.151 38.2659 166.151 35.8993Z" fill="white"/>
</g>
<defs>
<linearGradient id="paint0_linear_299_4446" x1="-3.31063" y1="40.5345" x2="24.8725" y2="40.5345" gradientUnits="userSpaceOnUse">
<stop stop-color="#DB154C" stop-opacity="0"/>
<stop offset="1" stop-color="#DB154C"/>
</linearGradient>
<linearGradient id="paint1_linear_299_4446" x1="-3.31063" y1="7.48672" x2="24.8725" y2="7.48672" gradientUnits="userSpaceOnUse">
<stop stop-color="#DB154C" stop-opacity="0"/>
<stop offset="1" stop-color="#DB154C"/>
</linearGradient>
<clipPath id="clip0_299_4446">
<rect width="170.271" height="48.0088" fill="white" transform="translate(0 0.00732422)"/>
</clipPath>
<clipPath id="clip1_299_4446">
<rect width="47.1978" height="40.2352" fill="white" transform="translate(0.351685 3.89404)"/>
</clipPath>
</defs>
</svg>
