<svg width="48" height="42" viewBox="0 0 48 42" fill="none" xmlns="http://www.w3.org/2000/svg">
<path d="M27.4328 0.894043C34.6612 0.894043 41.64 5.04955 45.1041 11.3906C46.7098 14.3307 47.5493 17.6612 47.5493 21.0106C47.5493 23.3622 47.1459 25.6188 46.4043 27.7158C45.5213 30.2141 44.1586 32.4866 42.4266 34.4211C41.9288 34.9776 41.3999 35.5066 40.8433 36.0044C38.9082 37.7356 36.6363 39.099 34.1381 39.9821C32.0411 40.7237 29.7837 41.1271 27.4328 41.1271H14.0223C13.9838 41.1271 13.9461 41.1271 13.9076 41.1256C13.8728 41.1256 13.8387 41.1242 13.8039 41.1235C13.7088 41.1206 13.6138 41.1155 13.5194 41.1082C13.4948 41.106 13.4694 41.1046 13.4447 41.1024C13.3823 41.0973 13.3206 41.0908 13.2589 41.0843C13.2437 41.0821 13.2285 41.0806 13.2132 41.0785C13.182 41.0748 13.1515 41.0712 13.1218 41.0669C13.087 41.0618 13.0521 41.0574 13.0173 41.0516C12.9919 41.0473 12.9658 41.0436 12.9404 41.0393C12.9208 41.0364 12.9012 41.0328 12.8816 41.0299C12.8287 41.0211 12.7764 41.011 12.7234 41.0008C12.677 40.9921 12.6313 40.9827 12.5863 40.9725C12.5479 40.9638 12.5087 40.9551 12.4702 40.9464C12.4608 40.9442 12.4513 40.9421 12.4412 40.9392C12.3534 40.9181 12.267 40.8949 12.1807 40.8709C12.0914 40.8456 12.0037 40.8187 11.9159 40.7897C11.8788 40.7781 11.8418 40.765 11.8056 40.7519C11.7947 40.7483 11.7831 40.7447 11.7722 40.7403C11.7388 40.7287 11.7054 40.7164 11.6713 40.7033C11.6227 40.6852 11.5748 40.6671 11.5277 40.6482C11.4892 40.633 11.4507 40.617 11.4123 40.601C11.3796 40.588 11.3477 40.5735 11.3158 40.5589C11.2904 40.5481 11.265 40.5364 11.2396 40.5248C11.1772 40.4965 11.1148 40.4668 11.0531 40.4363C11.0502 40.4349 11.0473 40.4334 11.0444 40.432C11.0212 40.4204 10.9972 40.4087 10.974 40.3964C10.9479 40.3833 10.9211 40.3696 10.8949 40.3558C10.8616 40.3384 10.8282 40.3202 10.7948 40.3021C10.7904 40.2999 10.7868 40.2977 10.7825 40.2956C10.7447 40.2745 10.7063 40.2527 10.6685 40.231C10.0772 39.8892 9.54387 39.4597 9.08384 38.9604C7.98601 37.7668 7.31555 36.1727 7.31555 34.4225H27.4321C29.8744 34.4225 32.1652 33.7695 34.1373 32.6281C36.1734 31.4505 37.8705 29.7526 39.0482 27.7166C40.1896 25.7444 40.8426 23.4537 40.8426 21.0113C40.8426 18.5689 40.1896 16.2782 39.0482 14.306C39.0402 14.2915 39.0315 14.2777 39.0235 14.2639C37.8807 12.3034 36.2539 10.6599 34.3086 9.4953C34.2513 9.4612 34.1947 9.42782 34.1373 9.39444C32.1652 8.25307 29.8744 7.60003 27.4321 7.60003M26.6317 13.4607C26.303 13.4607 26.1383 13.8583 26.3705 14.0912L27.1063 14.827L28.0416 15.7623L27.4974 16.3065L27.4321 16.3718L22.7933 21.0106L22.7534 21.0505L22.6402 20.9707C22.4385 20.8342 22.1802 20.7588 21.9502 20.6688C21.8791 20.6405 21.8065 20.6151 21.7332 20.5926C21.6723 20.573 21.6106 20.5556 21.5475 20.5404C21.4539 20.5164 21.3581 20.4968 21.2616 20.4816C21.1651 20.4656 21.0664 20.4548 20.967 20.4475C20.8879 20.4417 20.8074 20.4388 20.7261 20.4388C20.7021 20.4388 20.6782 20.4388 20.6542 20.4402C20.6455 20.4402 20.6368 20.4402 20.6281 20.441C19.9707 20.4591 19.3612 20.6674 18.8526 21.0113C18.7278 21.0955 18.6102 21.1912 18.5036 21.2986L16.4937 23.3085L16.4378 23.3651L16.0133 23.7896C17.9492 25.7262 19.7494 27.7173 22.7186 27.7173C23.8404 27.7173 24.8983 27.4416 25.8278 26.9547C26.4199 26.6441 27.0257 26.2566 27.4974 25.7908L32.2762 21.0127L32.7826 20.5063L34.5364 22.26C34.7497 22.4734 35.114 22.3224 35.114 22.0206V13.4629H26.631L26.6317 13.4607Z" fill="url(#paint0_linear_299_4448)"/>
<path d="M27.4328 41.1272C34.6612 41.1272 41.64 36.9717 45.1041 30.6307C46.7098 27.6905 47.5493 24.36 47.5493 21.0107C47.5493 18.659 47.1459 16.4024 46.4043 14.3054C45.5213 11.8072 44.1586 9.5346 42.4266 7.60015C41.9288 7.04361 41.3999 6.51465 40.8433 6.01689C38.9082 4.28561 36.6363 2.92221 34.1381 2.03915C32.0411 1.29759 29.7837 0.894157 27.4328 0.894157H14.0223C13.9838 0.894157 13.9461 0.894154 13.9076 0.895603C13.8728 0.895603 13.8387 0.897057 13.8039 0.897785C13.7088 0.900684 13.6138 0.905766 13.5194 0.913025C13.4948 0.915199 13.4694 0.916649 13.4447 0.918823C13.3823 0.923904 13.3206 0.930435 13.2589 0.936966C13.2437 0.939144 13.2285 0.940594 13.2132 0.942772C13.182 0.9464 13.1515 0.950027 13.1218 0.95438C13.087 0.959457 13.0521 0.963814 13.0173 0.96962C12.9919 0.973972 12.9658 0.9776 12.9404 0.981953C12.9208 0.984856 12.9012 0.988483 12.8816 0.991386C12.8287 1.0001 12.7764 1.01025 12.7234 1.02041C12.677 1.02912 12.6313 1.03855 12.5863 1.04871C12.5479 1.05742 12.5087 1.06612 12.4702 1.07483C12.4608 1.07701 12.4513 1.07918 12.4412 1.08208C12.3534 1.10313 12.267 1.12635 12.1807 1.1503C12.0914 1.17569 12.0036 1.20253 11.9159 1.23156C11.8788 1.24317 11.8418 1.25623 11.8056 1.26929C11.7947 1.27292 11.7831 1.27655 11.7722 1.2809C11.7388 1.29251 11.7054 1.30485 11.6713 1.31791C11.6227 1.33605 11.5748 1.35419 11.5277 1.37305C11.4892 1.38829 11.4507 1.40425 11.4123 1.42022C11.3796 1.43328 11.3477 1.44779 11.3158 1.4623C11.2904 1.47319 11.265 1.48479 11.2396 1.4964C11.1772 1.5247 11.1148 1.55445 11.0531 1.58493C11.0502 1.58638 11.0473 1.58783 11.0444 1.58928C11.0212 1.60089 10.9972 1.6125 10.974 1.62484C10.9479 1.6379 10.9211 1.65168 10.8949 1.66547C10.8616 1.68288 10.8282 1.70103 10.7948 1.71917C10.7904 1.72134 10.7868 1.72352 10.7825 1.72569C10.7447 1.74673 10.7063 1.7685 10.6685 1.79027C10.0772 2.13203 9.54387 2.56158 9.08384 3.06079C7.98601 4.25441 7.31555 5.84855 7.31555 7.5987H27.4321C29.8744 7.5987 32.1652 8.25174 34.1373 9.3931C36.1734 10.5707 37.8705 12.2687 39.0482 14.3047C40.1896 16.2769 40.8426 18.5676 40.8426 21.01C40.8426 23.4523 40.1896 25.743 39.0482 27.7152C39.0402 27.7297 39.0315 27.7435 39.0235 27.7573C37.8807 29.7179 36.2539 31.3614 34.3086 32.5259C34.2513 32.56 34.1947 32.5934 34.1373 32.6268C32.1652 33.7682 29.8744 34.4212 27.4321 34.4212" fill="url(#paint1_linear_299_4448)"/>
<path d="M22.7546 21.0505C22.7176 21.0229 22.6798 20.9968 22.6414 20.9707C22.4397 20.8342 22.1813 20.7588 21.9513 20.6688C21.8802 20.6405 21.8077 20.6151 21.7344 20.5926C21.6734 20.573 21.6118 20.5556 21.5486 20.5404C21.455 20.5164 21.3592 20.4968 21.2627 20.4816C21.1662 20.4656 21.0676 20.4548 20.9681 20.4475C20.8891 20.4417 20.8085 20.4388 20.7272 20.4388C20.7033 20.4388 20.6794 20.4388 20.6554 20.4402C20.6467 20.4402 20.638 20.4402 20.6293 20.441C19.9719 20.4591 19.3624 20.6674 18.8537 21.0113C18.7289 21.0955 18.6114 21.1912 18.5047 21.2986C18.5047 21.2986 17.0746 22.7223 16.4948 23.3085L16.439 23.3651L16.0145 23.7896L14.022 25.7821L8.70188 31.1022C7.82681 31.9773 7.32107 33.1607 7.31671 34.3979V34.4225C7.31671 36.1727 7.98717 37.7661 9.085 38.9604C9.31139 39.2071 9.55591 39.4364 9.81641 39.6469C10.0762 39.8566 10.3519 40.0467 10.6407 40.215C10.9295 40.3841 11.2313 40.5306 11.5426 40.6547C11.9047 40.7984 12.2805 40.9116 12.6622 40.9907C12.8871 41.0371 13.1143 41.0719 13.3428 41.0952C13.3769 41.0988 13.4118 41.1017 13.4459 41.1046C13.4705 41.1068 13.4959 41.1089 13.5206 41.1104C13.6149 41.1177 13.71 41.1227 13.805 41.1256C13.8399 41.1271 13.874 41.1278 13.9088 41.1278C13.9465 41.1285 13.985 41.1293 14.0234 41.1293H7.31817C5.45845 41.1293 3.77579 40.3725 2.56041 39.1491C2.55968 39.1484 2.55896 39.1476 2.55823 39.1462C1.93785 38.4627 1.42702 37.6783 1.05334 36.8199C0.602016 35.7823 0.351685 34.6366 0.351685 33.4328C0.351685 32.0034 0.704326 30.6567 1.32762 29.4747C1.32762 29.474 1.32834 29.4725 1.32907 29.4718C1.50466 29.138 1.70203 28.818 1.91971 28.5118C2.12868 28.2296 2.35434 27.964 2.60395 27.7173C2.60395 27.7173 2.93337 27.3879 3.46451 26.8567C5.65582 24.6654 11.2734 19.0478 11.2734 19.0478L11.3017 19.0195L11.3307 18.9912C12.0788 18.2605 12.9982 17.7033 14.0227 17.3847C14.6518 17.1888 15.3215 17.0836 16.0152 17.0836C16.423 17.0836 16.8228 17.1199 17.2103 17.1896C18.5693 17.4341 19.7861 18.0878 20.7287 19.0195L20.757 19.0478L22.7553 21.0519L22.7546 21.0505ZM7.31164 0.894043C3.73225 0.894043 0.808087 3.69849 0.616528 7.22998V14.3053H7.32179V7.96936C7.31526 7.84746 7.31164 7.72411 7.31164 7.60003C7.31164 5.11776 8.66053 2.95112 10.6646 1.79161C11.6507 1.22129 12.7957 0.894769 14.0176 0.894769H7.31236L7.31164 0.894043Z" fill="#DB154C"/>
<defs>
<linearGradient id="paint0_linear_299_4448" x1="-3.31063" y1="37.5345" x2="24.8725" y2="37.5345" gradientUnits="userSpaceOnUse">
<stop stop-color="#DB154C" stop-opacity="0"/>
<stop offset="1" stop-color="#DB154C"/>
</linearGradient>
<linearGradient id="paint1_linear_299_4448" x1="-3.31063" y1="4.48672" x2="24.8725" y2="4.48672" gradientUnits="userSpaceOnUse">
<stop stop-color="#DB154C" stop-opacity="0"/>
<stop offset="1" stop-color="#DB154C"/>
</linearGradient>
</defs>
</svg>
